<svg width="580" height="167" viewBox="0 0 580 167" fill="none" xmlns="http://www.w3.org/2000/svg">
<mask id="path-1-inside-1_334_994" fill="white">
<path d="M0 115H39V167H0V115Z"/>
</mask>
<path d="M0 167H-4V171H0V167ZM39 163H0V171H39V163ZM4 167V115H-4V167H4Z" fill="black" mask="url(#path-1-inside-1_334_994)"/>
<path d="M56.3005 101.464V90.808H97.3885V101.464H56.3005ZM40.8445 115L70.0285 52.888H83.8525L113.324 115H99.4045L73.8685 59.032H80.0125L54.6685 115H40.8445ZM155.09 116.056C150.866 116.056 147.25 115.32 144.242 113.848C141.234 112.312 138.802 110.328 136.946 107.896C135.09 105.4 133.714 102.712 132.818 99.832C131.922 96.888 131.474 94.008 131.474 91.192C131.474 87.672 131.89 84.408 132.722 81.4C133.618 78.392 134.994 75.768 136.85 73.528C138.706 71.224 141.138 69.432 144.146 68.152C147.154 66.872 150.802 66.232 155.09 66.232C160.018 66.232 164.37 67.288 168.146 69.4C171.986 71.448 174.994 74.328 177.17 78.04C179.41 81.752 180.53 86.136 180.53 91.192C180.53 96.12 179.41 100.472 177.17 104.248C174.93 107.96 171.89 110.872 168.05 112.984C164.21 115.032 159.89 116.056 155.09 116.056ZM151.058 106.456C154.45 106.456 157.394 105.816 159.89 104.536C162.386 103.256 164.306 101.496 165.65 99.256C167.058 96.952 167.762 94.264 167.762 91.192C167.762 86.584 166.29 82.872 163.346 80.056C160.466 77.24 156.37 75.832 151.058 75.832C147.346 75.832 144.114 76.44 141.362 77.656C138.61 78.872 136.466 80.632 134.93 82.936C133.458 85.176 132.722 87.928 132.722 91.192C132.722 94.2 133.458 96.856 134.93 99.16C136.402 101.464 138.514 103.256 141.266 104.536C144.018 105.816 147.282 106.456 151.058 106.456ZM132.722 48.088V102.712C132.722 104.76 132.626 106.968 132.434 109.336C132.242 111.64 132.05 113.528 131.858 115H120.242V48.088H132.722ZM215.488 116.152C209.472 116.152 204.16 115.192 199.552 113.272C195.008 111.352 191.456 108.568 188.896 104.92C186.336 101.208 185.056 96.664 185.056 91.288C185.056 85.912 186.336 81.368 188.896 77.656C191.456 73.88 195.008 71.032 199.552 69.112C204.16 67.192 209.472 66.232 215.488 66.232C221.504 66.232 226.752 67.192 231.232 69.112C235.776 71.032 239.328 73.88 241.888 77.656C244.448 81.368 245.728 85.912 245.728 91.288C245.728 96.664 244.448 101.208 241.888 104.92C239.328 108.568 235.776 111.352 231.232 113.272C226.752 115.192 221.504 116.152 215.488 116.152ZM215.488 106.552C218.816 106.552 221.792 105.976 224.416 104.824C227.104 103.608 229.216 101.88 230.752 99.64C232.288 97.336 233.056 94.552 233.056 91.288C233.056 88.024 232.288 85.24 230.752 82.936C229.216 80.568 227.136 78.776 224.512 77.56C221.888 76.344 218.88 75.736 215.488 75.736C212.16 75.736 209.152 76.344 206.464 77.56C203.776 78.776 201.632 80.536 200.032 82.84C198.496 85.144 197.728 87.96 197.728 91.288C197.728 94.552 198.496 97.336 200.032 99.64C201.568 101.88 203.68 103.608 206.368 104.824C209.056 105.976 212.096 106.552 215.488 106.552ZM307.754 115H295.274V67.288H307.754V115ZM295.946 92.056L296.042 95.32C295.914 96.216 295.594 97.528 295.082 99.256C294.57 100.92 293.77 102.712 292.682 104.632C291.658 106.552 290.314 108.408 288.65 110.2C286.986 111.928 284.938 113.368 282.506 114.52C280.074 115.608 277.194 116.152 273.866 116.152C271.242 116.152 268.65 115.832 266.09 115.192C263.594 114.552 261.322 113.496 259.274 112.024C257.226 110.488 255.594 108.44 254.378 105.88C253.162 103.32 252.554 100.088 252.554 96.184V67.288H265.034V94.072C265.034 97.144 265.514 99.576 266.474 101.368C267.498 103.096 268.97 104.312 270.89 105.016C272.81 105.72 275.082 106.072 277.706 106.072C281.162 106.072 284.138 105.336 286.634 103.864C289.13 102.328 291.146 100.472 292.682 98.296C294.282 96.12 295.37 94.04 295.946 92.056ZM313.356 67.288H350.412V76.984H313.356V67.288ZM325.644 54.232H338.124V115H325.644V54.232ZM376.698 67.288H389.178V115H376.698V67.288ZM411.354 66.232C414.298 66.232 417.018 66.616 419.514 67.384C422.01 68.152 424.186 69.336 426.042 70.936C427.898 72.536 429.338 74.584 430.362 77.08C431.386 79.512 431.898 82.424 431.898 85.816V115H419.417V88.024C419.417 83.992 418.426 81.048 416.442 79.192C414.522 77.272 411.354 76.312 406.938 76.312C403.61 76.312 400.602 76.952 397.914 78.232C395.226 79.512 393.05 81.144 391.386 83.128C389.722 85.048 388.762 87.064 388.506 89.176L388.41 84.28C388.73 82.04 389.466 79.864 390.618 77.752C391.77 75.64 393.306 73.72 395.226 71.992C397.21 70.2 399.546 68.792 402.234 67.768C404.922 66.744 407.962 66.232 411.354 66.232ZM452.922 66.232C455.866 66.232 458.586 66.616 461.082 67.384C463.578 68.152 465.754 69.336 467.61 70.936C469.466 72.536 470.906 74.584 471.93 77.08C473.018 79.512 473.562 82.424 473.562 85.816V115H461.082V88.024C461.082 83.992 460.09 81.048 458.106 79.192C456.122 77.272 452.922 76.312 448.506 76.312C445.178 76.312 442.17 76.952 439.482 78.232C436.794 79.512 434.618 81.144 432.954 83.128C431.29 85.048 430.362 87.064 430.17 89.176L429.978 83.992C430.298 81.88 431.066 79.768 432.282 77.656C433.498 75.544 435.098 73.624 437.082 71.896C439.066 70.168 441.37 68.792 443.994 67.768C446.682 66.744 449.658 66.232 452.922 66.232ZM525.973 99.16H538.069C537.557 102.424 536.181 105.336 533.941 107.896C531.765 110.456 528.789 112.472 525.013 113.944C521.237 115.416 516.629 116.152 511.189 116.152C505.109 116.152 499.733 115.192 495.061 113.272C490.389 111.288 486.741 108.44 484.117 104.728C481.493 101.016 480.181 96.536 480.181 91.288C480.181 86.04 481.461 81.56 484.021 77.848C486.581 74.072 490.133 71.192 494.677 69.208C499.285 67.224 504.661 66.232 510.805 66.232C517.077 66.232 522.293 67.224 526.453 69.208C530.613 71.192 533.685 74.2 535.669 78.232C537.717 82.2 538.581 87.288 538.261 93.496H492.757C493.077 95.928 493.973 98.136 495.445 100.12C496.981 102.104 499.029 103.672 501.589 104.824C504.213 105.976 507.317 106.552 510.901 106.552C514.869 106.552 518.165 105.88 520.789 104.536C523.477 103.128 525.205 101.336 525.973 99.16ZM510.229 75.736C505.621 75.736 501.877 76.76 498.997 78.808C496.117 80.792 494.261 83.256 493.429 86.2H525.877C525.557 83 524.021 80.472 521.269 78.616C518.581 76.696 514.901 75.736 510.229 75.736Z" fill="black"/>
</svg>
