<svg width="580" height="167" viewBox="0 0 580 167" fill="none" xmlns="http://www.w3.org/2000/svg">
<mask id="path-1-inside-1_334_995" fill="white">
<path d="M0 115H39V167H0V115Z"/>
</mask>
<path d="M0 167H-4V171H0V167ZM39 163H0V171H39V163ZM4 167V115H-4V167H4Z" fill="black" mask="url(#path-1-inside-1_334_995)"/>
<path d="M136.046 108.664H129.998L165.71 52.888H178.478V115H165.71V69.88L168.782 70.744L140.27 115H125.966L97.4536 70.936L100.526 70.072V115H87.7576V52.888H100.526L136.046 108.664ZM184.874 67.288H198.122L218.762 113.08L208.01 115L184.874 67.288ZM243.242 67.288L210.218 134.2H197.258L211.37 107.896L229.898 67.288H243.242ZM266.943 99.16H278.463C279.167 101.336 280.607 103.128 282.783 104.536C285.023 105.88 287.935 106.552 291.519 106.552C293.951 106.552 295.839 106.328 297.183 105.88C298.527 105.432 299.455 104.792 299.967 103.96C300.479 103.064 300.735 102.072 300.735 100.984C300.735 99.64 300.319 98.616 299.487 97.912C298.655 97.144 297.375 96.536 295.647 96.088C293.919 95.64 291.711 95.224 289.023 94.84C286.335 94.392 283.743 93.848 281.247 93.208C278.751 92.568 276.543 91.736 274.623 90.712C272.703 89.624 271.167 88.28 270.015 86.68C268.927 85.016 268.383 83 268.383 80.632C268.383 78.328 268.927 76.28 270.015 74.488C271.167 72.696 272.735 71.192 274.719 69.976C276.767 68.76 279.135 67.832 281.823 67.192C284.575 66.552 287.519 66.232 290.655 66.232C295.391 66.232 299.327 66.936 302.463 68.344C305.599 69.688 307.935 71.608 309.471 74.104C311.071 76.536 311.871 79.352 311.871 82.552H300.831C300.319 80.184 299.295 78.488 297.759 77.464C296.223 76.376 293.855 75.832 290.655 75.832C287.519 75.832 285.151 76.312 283.551 77.272C281.951 78.232 281.151 79.544 281.151 81.208C281.151 82.552 281.631 83.608 282.591 84.376C283.615 85.08 285.087 85.656 287.007 86.104C288.991 86.552 291.455 87.032 294.399 87.544C296.895 88.056 299.263 88.632 301.503 89.272C303.807 89.912 305.855 90.744 307.647 91.768C309.439 92.728 310.847 94.04 311.871 95.704C312.959 97.304 313.503 99.352 313.503 101.848C313.503 104.92 312.607 107.512 310.815 109.624C309.087 111.736 306.591 113.368 303.327 114.52C300.063 115.608 296.159 116.152 291.615 116.152C287.583 116.152 284.095 115.736 281.151 114.904C278.271 114.008 275.871 112.888 273.951 111.544C272.031 110.136 270.527 108.664 269.439 107.128C268.415 105.528 267.711 104.024 267.327 102.616C266.943 101.208 266.815 100.056 266.943 99.16ZM321.515 48.088H333.995V115H321.515V48.088ZM374.219 67.288L345.803 92.344L346.091 84.664L376.427 115H360.587L334.283 88.216L357.227 67.288H374.219ZM394.898 46.36V57.304H380.402V46.36H394.898ZM381.362 67.288H393.842V115H381.362V67.288ZM404.842 48.088H417.322V115H404.842V48.088ZM428.504 48.088H440.984V115H428.504V48.088ZM449.287 99.16H460.807C461.511 101.336 462.951 103.128 465.127 104.536C467.367 105.88 470.279 106.552 473.863 106.552C476.295 106.552 478.183 106.328 479.527 105.88C480.871 105.432 481.799 104.792 482.311 103.96C482.823 103.064 483.079 102.072 483.079 100.984C483.079 99.64 482.663 98.616 481.831 97.912C480.999 97.144 479.719 96.536 477.991 96.088C476.263 95.64 474.055 95.224 471.367 94.84C468.679 94.392 466.087 93.848 463.591 93.208C461.095 92.568 458.887 91.736 456.967 90.712C455.047 89.624 453.511 88.28 452.359 86.68C451.271 85.016 450.727 83 450.727 80.632C450.727 78.328 451.271 76.28 452.359 74.488C453.511 72.696 455.079 71.192 457.063 69.976C459.111 68.76 461.479 67.832 464.167 67.192C466.919 66.552 469.863 66.232 472.999 66.232C477.735 66.232 481.671 66.936 484.807 68.344C487.943 69.688 490.279 71.608 491.815 74.104C493.415 76.536 494.215 79.352 494.215 82.552H483.175C482.663 80.184 481.639 78.488 480.103 77.464C478.567 76.376 476.199 75.832 472.999 75.832C469.863 75.832 467.495 76.312 465.895 77.272C464.295 78.232 463.495 79.544 463.495 81.208C463.495 82.552 463.975 83.608 464.935 84.376C465.959 85.08 467.431 85.656 469.351 86.104C471.335 86.552 473.799 87.032 476.743 87.544C479.239 88.056 481.607 88.632 483.847 89.272C486.151 89.912 488.199 90.744 489.991 91.768C491.783 92.728 493.191 94.04 494.215 95.704C495.303 97.304 495.847 99.352 495.847 101.848C495.847 104.92 494.951 107.512 493.159 109.624C491.431 111.736 488.935 113.368 485.671 114.52C482.407 115.608 478.503 116.152 473.959 116.152C469.927 116.152 466.439 115.736 463.495 114.904C460.615 114.008 458.215 112.888 456.295 111.544C454.375 110.136 452.871 108.664 451.783 107.128C450.759 105.528 450.055 104.024 449.671 102.616C449.287 101.208 449.159 100.056 449.287 99.16Z" fill="black"/>
</svg>
