<svg width="580" height="167" viewBox="0 0 580 167" fill="none" xmlns="http://www.w3.org/2000/svg">
<mask id="path-1-inside-1_334_996" fill="white">
<path d="M0 115H39V167H0V115Z"/>
</mask>
<path d="M0 167H-4V171H0V167ZM39 163H0V171H39V163ZM4 167V115H-4V167H4Z" fill="black" mask="url(#path-1-inside-1_334_996)"/>
<path d="M92.6101 94.84V84.664H121.026C124.418 84.664 127.106 83.768 129.09 81.976C131.074 80.12 132.066 77.56 132.066 74.296C132.066 70.904 131.074 68.312 129.09 66.52C127.106 64.728 124.418 63.832 121.026 63.832H94.1461V115H81.3781V52.888H119.874C123.33 52.888 126.562 53.304 129.57 54.136C132.642 54.968 135.298 56.248 137.538 57.976C139.842 59.704 141.634 61.912 142.914 64.6C144.194 67.288 144.834 70.52 144.834 74.296C144.834 78.008 144.194 81.176 142.914 83.8C141.634 86.424 139.842 88.568 137.538 90.232C135.298 91.832 132.642 93.016 129.57 93.784C126.562 94.488 123.33 94.84 119.874 94.84H92.6101ZM179.354 116.152C173.338 116.152 168.026 115.192 163.418 113.272C158.874 111.352 155.322 108.568 152.762 104.92C150.202 101.208 148.922 96.664 148.922 91.288C148.922 85.912 150.202 81.368 152.762 77.656C155.322 73.88 158.874 71.032 163.418 69.112C168.026 67.192 173.338 66.232 179.354 66.232C185.37 66.232 190.618 67.192 195.098 69.112C199.642 71.032 203.194 73.88 205.754 77.656C208.314 81.368 209.594 85.912 209.594 91.288C209.594 96.664 208.314 101.208 205.754 104.92C203.194 108.568 199.642 111.352 195.098 113.272C190.618 115.192 185.37 116.152 179.354 116.152ZM179.354 106.552C182.682 106.552 185.658 105.976 188.282 104.824C190.97 103.608 193.082 101.88 194.618 99.64C196.154 97.336 196.922 94.552 196.922 91.288C196.922 88.024 196.154 85.24 194.618 82.936C193.082 80.568 191.002 78.776 188.378 77.56C185.754 76.344 182.746 75.736 179.354 75.736C176.026 75.736 173.018 76.344 170.33 77.56C167.642 78.776 165.498 80.536 163.898 82.84C162.362 85.144 161.594 87.96 161.594 91.288C161.594 94.552 162.362 97.336 163.898 99.64C165.434 101.88 167.546 103.608 170.234 104.824C172.922 105.976 175.962 106.552 179.354 106.552ZM216.419 67.288H228.899V115H216.419V67.288ZM247.235 77.56C243.651 77.56 240.547 78.264 237.923 79.672C235.299 81.016 233.187 82.68 231.587 84.664C229.987 86.648 228.867 88.568 228.227 90.424L228.131 85.144C228.195 84.376 228.451 83.256 228.899 81.784C229.347 80.248 230.019 78.616 230.915 76.888C231.811 75.096 232.995 73.4 234.467 71.8C235.939 70.136 237.731 68.792 239.843 67.768C241.955 66.744 244.419 66.232 247.235 66.232V77.56ZM249.472 67.288H286.528V76.984H249.472V67.288ZM261.76 54.232H274.24V115H261.76V54.232ZM288.697 68.152H327.097V77.656H288.697V68.152ZM317.881 48.088H327.769V58.168H320.857C319.001 58.104 317.401 58.296 316.057 58.744C314.713 59.192 313.689 60.024 312.985 61.24C312.281 62.392 311.929 64.056 311.929 66.232V115H299.449V64.696C299.449 60.856 300.153 57.72 301.561 55.288C302.969 52.792 305.049 50.968 307.801 49.816C310.553 48.664 313.913 48.088 317.881 48.088ZM359.972 116.152C353.956 116.152 348.644 115.192 344.036 113.272C339.492 111.352 335.94 108.568 333.38 104.92C330.82 101.208 329.54 96.664 329.54 91.288C329.54 85.912 330.82 81.368 333.38 77.656C335.94 73.88 339.492 71.032 344.036 69.112C348.644 67.192 353.956 66.232 359.972 66.232C365.988 66.232 371.236 67.192 375.716 69.112C380.26 71.032 383.812 73.88 386.372 77.656C388.932 81.368 390.212 85.912 390.212 91.288C390.212 96.664 388.932 101.208 386.372 104.92C383.812 108.568 380.26 111.352 375.716 113.272C371.236 115.192 365.988 116.152 359.972 116.152ZM359.972 106.552C363.3 106.552 366.276 105.976 368.9 104.824C371.588 103.608 373.7 101.88 375.236 99.64C376.772 97.336 377.54 94.552 377.54 91.288C377.54 88.024 376.772 85.24 375.236 82.936C373.7 80.568 371.62 78.776 368.996 77.56C366.372 76.344 363.364 75.736 359.972 75.736C356.644 75.736 353.636 76.344 350.948 77.56C348.26 78.776 346.116 80.536 344.516 82.84C342.98 85.144 342.212 87.96 342.212 91.288C342.212 94.552 342.98 97.336 344.516 99.64C346.052 101.88 348.164 103.608 350.852 104.824C353.54 105.976 356.58 106.552 359.972 106.552ZM397.998 48.088H410.478V115H397.998V48.088ZM435.005 46.36V57.304H420.509V46.36H435.005ZM421.469 67.288H433.949V115H421.469V67.288ZM472.116 116.152C466.1 116.152 460.788 115.192 456.18 113.272C451.636 111.352 448.084 108.568 445.524 104.92C442.964 101.208 441.684 96.664 441.684 91.288C441.684 85.912 442.964 81.368 445.524 77.656C448.084 73.88 451.636 71.032 456.18 69.112C460.788 67.192 466.1 66.232 472.116 66.232C478.132 66.232 483.38 67.192 487.86 69.112C492.404 71.032 495.956 73.88 498.516 77.656C501.076 81.368 502.356 85.912 502.356 91.288C502.356 96.664 501.076 101.208 498.516 104.92C495.956 108.568 492.404 111.352 487.86 113.272C483.38 115.192 478.132 116.152 472.116 116.152ZM472.116 106.552C475.444 106.552 478.42 105.976 481.044 104.824C483.732 103.608 485.844 101.88 487.38 99.64C488.916 97.336 489.684 94.552 489.684 91.288C489.684 88.024 488.916 85.24 487.38 82.936C485.844 80.568 483.764 78.776 481.14 77.56C478.516 76.344 475.508 75.736 472.116 75.736C468.788 75.736 465.78 76.344 463.092 77.56C460.404 78.776 458.26 80.536 456.66 82.84C455.124 85.144 454.356 87.96 454.356 91.288C454.356 94.552 455.124 97.336 456.66 99.64C458.196 101.88 460.308 103.608 462.996 104.824C465.684 105.976 468.724 106.552 472.116 106.552Z" fill="black"/>
</svg>
