<svg width="75" height="75" viewBox="0 0 75 75" fill="none" xmlns="http://www.w3.org/2000/svg">
<g clip-path="url(#clip0_105207_2166)">
<path d="M62.2862 31.5181L38.2694 45.1984C37.8371 45.4526 37.3031 45.4526 36.8582 45.1984L12.8414 31.5181C11.9005 30.9841 11.9005 29.6237 12.8414 29.077L36.8582 15.3967C37.2904 15.1424 37.8244 15.1424 38.2694 15.3967L62.2862 29.077C63.227 29.611 63.227 30.9714 62.2862 31.5181Z" fill="black"/>
<path d="M58.1289 36.1205V47.3979C58.1289 47.9064 57.8619 48.3641 57.4169 48.6184L38.2696 59.5271C37.8373 59.7813 37.3033 59.7813 36.8583 59.5271L17.711 48.6184C17.266 48.3641 16.999 47.9064 16.999 47.3979V36.1205L27.6152 42.1597L36.8583 47.436C37.2906 47.6903 37.8246 47.6903 38.2696 47.436L47.5127 42.1597L58.1289 36.1205Z" fill="black"/>
<path d="M69.317 17.5072L69.9781 17.0495C70.7791 16.4901 70.6774 15.2823 69.8001 14.8627L64.5365 12.358C63.6465 11.9385 62.6421 12.6377 62.7184 13.6167L63.227 19.427C63.316 20.3933 64.4221 20.9146 65.2231 20.3552L66.1639 19.7067C74.5297 33.1836 72.2794 51.1358 60.5825 62.0699C49.0763 72.8259 31.3402 74.1355 18.4101 65.1848C17.5455 64.5872 16.3504 64.8034 15.7528 65.6679C15.1553 66.5325 15.3714 67.7276 16.236 68.3252C22.6311 72.7496 30.0688 74.9237 37.4938 74.9237C46.7878 74.9237 56.0563 71.5164 63.1888 64.8542C76.2461 52.6361 78.7635 32.5352 69.317 17.5072Z" fill="black"/>
<path d="M58.8909 6.59834C44.4986 -3.36945 24.7537 -1.90734 11.938 10.0693C-1.44988 22.5926 -3.85283 42.6044 6.12767 57.8867L5.19955 58.5224C4.39856 59.0818 4.50028 60.2896 5.37754 60.7092L10.6411 63.2139C11.5311 63.6334 12.5355 62.9342 12.4593 61.9552L11.9507 56.1449C11.8617 55.1786 10.7556 54.6573 9.95459 55.2167L9.26803 55.6999C0.393648 41.9815 2.54232 24.0674 14.5444 12.8536C26.0505 2.09758 43.7866 0.775319 56.7168 9.7387C57.5813 10.3363 58.7764 10.1201 59.374 9.25557C59.9715 8.39102 59.7554 7.1959 58.8909 6.59834Z" fill="black"/>
</g>
<defs>
<clipPath id="clip0_105207_2166">
<rect width="75" height="74.9237" fill="white"/>
</clipPath>
</defs>
</svg>
